<?xml version="1.0" encoding="UTF-8" standalone="no"?>
<!-- Created with Inkscape (http://www.inkscape.org/) -->

<svg
   width="210mm"
   height="297mm"
   viewBox="0 0 210 297"
   version="1.1"
   id="svg1"
   xml:space="preserve"
   inkscape:export-filename="Leaf.png"
   inkscape:export-xdpi="96"
   inkscape:export-ydpi="96"
   inkscape:version="1.4.2 (f4327f4, 2025-05-13)"
   sodipodi:docname="Leaf - copia.svg"
   xmlns:inkscape="http://www.inkscape.org/namespaces/inkscape"
   xmlns:sodipodi="http://sodipodi.sourceforge.net/DTD/sodipodi-0.dtd"
   xmlns="http://www.w3.org/2000/svg"
   xmlns:svg="http://www.w3.org/2000/svg"><sodipodi:namedview
     id="namedview1"
     pagecolor="#ffffff"
     bordercolor="#000000"
     borderopacity="0.25"
     inkscape:showpageshadow="2"
     inkscape:pageopacity="0.0"
     inkscape:pagecheckerboard="0"
     inkscape:deskcolor="#d1d1d1"
     inkscape:document-units="mm"
     inkscape:zoom="0.48907828"
     inkscape:cx="11.245644"
     inkscape:cy="767.77075"
     inkscape:window-width="1920"
     inkscape:window-height="1057"
     inkscape:window-x="-8"
     inkscape:window-y="-8"
     inkscape:window-maximized="1"
     inkscape:current-layer="layer2" /><defs
     id="defs1" /><g
     inkscape:groupmode="layer"
     id="layer2"
     inkscape:label="Capa 2"><path
       style="fill:#ffffff;fill-opacity:1;stroke:none;stroke-width:2.46"
       d="m 155.30847,92.573027 -29.07252,13.006123 -11.476,28.30746 -1.53013,6.12053 13.77119,-1.53013 20.65679,-14.53626 7.65067,-16.0664 z"
       id="path6674" /><path
       style="fill:#ffffff;fill-opacity:1;stroke:none;stroke-width:2.64042"
       d="m 165.60049,136.20652 -31.40583,13.87067 -12.39705,30.18915 -1.65294,6.52737 14.87645,-1.63184 22.31467,-15.50253 8.2647,-17.13438 z"
       id="path6674-3" /><path
       style="fill:#ffffff;fill-opacity:1;stroke:none;stroke-width:2.43313"
       d="M 51.949692,87.789211 81.1129,100.47321 92.624703,128.07959 94.15961,134.04853 80.345455,132.5563 59.624228,118.38005 51.949692,102.71156 Z"
       id="path6674-3-0" /><path
       style="fill:#ffffff;fill-opacity:1;stroke:none;stroke-width:2.55932"
       d="m 45.931149,137.53866 35.143534,11.64566 13.87246,25.34646 1.849662,5.48031 -16.646942,-1.37007 -24.970406,-13.01575 -9.248308,-14.38583 z"
       id="path6674-3-0-3" /><path
       style="fill:#ffffff;fill-opacity:1;stroke:none;stroke-width:2.82449"
       d="m 176.32774,186.69099 -38.993,12.78362 -15.39198,27.82319 -2.05226,6.01582 18.47036,-1.50395 27.70556,-14.28758 10.26132,-15.79155 z"
       id="path6674-0" /><path
       style="fill:#ffffff;fill-opacity:1;stroke:none;stroke-width:2.45885"
       d="m 45.381793,189.02865 36.638618,10.31065 14.462621,22.44086 1.928353,4.85207 -17.355145,-1.21301 -26.032692,-11.52369 -9.641755,-12.7367 z"
       id="path6674-3-0-36" /><path
       style="fill:#ffffff;fill-opacity:1;stroke:none;stroke-width:2.46"
       d="M 103.32787,113.06557 117.93442,91.426227 117.39344,67.622951 107.11475,54.098359 93.590162,77.901638 97.918031,102.78689 Z"
       id="path6675" /></g><g
     inkscape:label="Capa 1"
     inkscape:groupmode="layer"
     id="layer1"><path
       style="fill:#000000;fill-opacity:1"
       d="m 95.770306,266.78728 c -0.32742,-0.13161 -0.59531,-0.37542 -0.59531,-0.5418 0,-0.16638 0.58211,-1.27155 1.29358,-2.45592 2.837036,-4.72276 5.181824,-10.10428 6.275734,-14.40337 0.72772,-2.85992 0.89661,-7.08495 0.37759,-9.44588 -1.1375,-5.1743 -3.666568,-9.8194 -5.835404,-10.71776 -1.00413,-0.41592 -3.90142,-0.24195 -8.85838,0.53193 -6.01028,0.93832 -13.77686,0.55039 -19.26108,-0.96207 -7.22665,-1.99298 -15.25354,-6.82097 -20.38259,-12.25963 -4.19996,-4.45349 -6.746339,-8.59344 -10.808309,-17.57234 -2.88328,-6.37343 -4.71436,-10.14359 -5.95964,-12.27078 -1.03016,-1.75974 -0.79414,-1.93407 1.86773,-1.37955 3.26006,0.67914 7.68755,1.02438 16.973059,1.32349 8.44093,0.2719 11.54252,0.62026 16.18721,1.81809 7.83321,2.02011 14.69498,5.78606 20.26158,11.1202 6.60289,6.32715 10.23527,12.929 11.973166,21.76128 0.899238,4.5701 1.310058,5.8168 2.582748,7.83794 1.23691,1.96428 3.2958,6.435 3.52781,7.66035 0.0896,0.47294 0.25311,0.8599 0.36347,0.8599 0.49967,0 1.8596,-8.24827 2.36892,-14.36806 0.36469,-4.38198 0.36251,-14.74173 -0.004,-18.23146 -0.52916,-5.04059 -3.01077,-11.15734 -6.31613,-15.56816 -1.901538,-2.53751 -5.225464,-5.60642 -6.962144,-6.428 l -1.48441,-0.70224 h -6.86751 c -3.77714,0 -8.10053,-0.12598 -9.60753,-0.27996 -11.18174,-1.14249 -21.3738,-6.34609 -28.48505,-14.54316 -4.3244,-4.98471 -7.008399,-9.97652 -10.239359,-19.04354 -2.36452,-6.63554 -4.65697,-12.37025 -5.57161,-13.93775 -0.63669,-1.09115 -0.833,-1.94097 -0.4466,-1.93335 0.10914,0.002 0.97234,0.18715 1.91823,0.41111 2.84595,0.67384 8.04572,1.39141 13.229169,1.82563 6.02059,0.50435 11.41595,1.27927 15.08125,2.16607 13.81541,3.34255 25.00211,13.20481 31.03636,27.36187 1.43671,3.37068 2.03646,5.33631 3.23795,10.61208 1.09994,4.82981 1.5318,5.77956 3.704744,8.14738 2.2328,2.43305 4.70853,5.56783 5.60396,7.09576 0.46444,0.79251 0.75785,1.08803 0.81022,0.81606 0.0452,-0.23451 -0.4034,-3.38887 -0.99681,-7.00968 -1.72279,-10.51198 -2.32631,-14.83327 -3.1735,-22.72289 -0.43753,-4.07458 -0.98969,-8.3013 -1.227,-9.39271 -1.08807,-5.00384 -3.886454,-11.23225 -6.225914,-13.85706 -1.8998,-2.13152 -2.83444,-2.48534 -7.7933,-2.95026 -9.76245,-0.91527 -15.46272,-2.6804 -21.45699,-6.6443 -4.58347,-3.03096 -8.99599,-8.04363 -11.67938,-13.26788 -2.32288,-4.52239 -3.19666,-7.56714 -6.12895,-21.356548 -0.46416,-2.182812 -1.13875,-4.902628 -1.49908,-6.044034 -0.36033,-1.141406 -0.59331,-2.137118 -0.51774,-2.212692 0.33274,-0.332735 19.64425,4.019708 22.92001,5.165728 8.00825,2.801677 14.4663,7.655796 18.98972,14.273396 4.07286,5.95846 6.19231,12.58743 7.08098,22.14708 0.58724,6.31716 0.95578,7.61906 2.83145,10.00253 0.43225,0.54926 1.368626,2.03754 2.080856,3.30729 l 1.294948,2.30863 -0.005,-7.80522 c -0.003,-4.94244 0.16316,-10.01244 0.45271,-13.82311 0.5141,-6.7656 0.4708,-7.17513 -1.0983,-10.38627 -0.49776,-1.01864 -1.846228,-3.28912 -2.996594,-5.0455 -4.67119,-7.13192 -6.29266,-10.351087 -7.45377,-14.798245 -1.85695,-7.112301 -1.08981,-13.926942 2.35301,-20.902082 2.16336,-4.382955 4.0957,-7.207955 9.725984,-14.219 2.66736,-3.321491 5.28033,-6.687588 5.8066,-7.480214 0.52628,-0.792627 1.06421,-1.374799 1.1954,-1.293717 0.13119,0.08108 0.84398,1.358599 1.58398,2.838927 0.73999,1.480328 2.88845,5.284911 4.77434,8.45463 6.70587,11.270928 8.47734,16.139888 8.49216,23.34104 0.0195,9.470029 -3.2067,15.791156 -13.67936,26.802221 -3.8302,4.02712 -5.01121,5.73472 -5.43487,7.85819 -0.86307,4.32589 -1.08707,19.6665 -0.41917,28.7073 0.47947,6.49033 0.82735,10.03273 1.00243,10.20781 0.0708,0.0708 0.56601,-1.13729 1.1005,-2.6846 1.03597,-2.99901 2.90663,-6.93557 4.17089,-8.77707 1.29682,-1.88894 1.56256,-3.05204 1.82929,-8.00655 0.49631,-9.21873 2.02263,-15.77614 5.08977,-21.86665 3.44854,-6.8479 10.04742,-13.49086 16.71597,-16.827644 2.89747,-1.449825 5.19183,-2.176287 10.18646,-3.225342 5.20262,-1.092741 10.54911,-2.441982 14.27698,-3.602945 3.79258,-1.181117 3.82687,-1.163697 2.91664,1.481941 -0.29341,0.8528 -1.17842,4.719112 -1.96669,8.59181 -0.78827,3.87269 -1.74803,8.16444 -2.13279,9.53723 -2.93432,10.4693 -8.2766,18.03244 -16.66601,23.59428 -5.306,3.51767 -9.96092,5.27611 -19.05,7.19634 -4.10032,0.86626 -5.97836,1.79088 -7.9768,3.92722 -3.62303,3.87303 -6.70758,12.72112 -6.70758,19.24084 0,1.3037 0.46493,5.5319 1.06536,9.68878 2.15935,14.94937 2.61403,18.31446 3.03434,22.45684 0.23624,2.32834 0.51321,4.82865 0.61549,5.55625 l 0.18596,1.32292 0.95948,-2.91042 c 0.52772,-1.60073 1.62464,-4.35836 2.43761,-6.12808 0.81297,-1.76972 1.59725,-3.73425 1.74285,-4.36563 0.1456,-0.63137 0.26834,-3.35061 0.27275,-6.04274 0.009,-5.31281 0.36077,-8.36203 1.47189,-12.7482 1.79779,-7.09688 5.06589,-13.5541 9.37432,-18.52208 2.16418,-2.49548 6.19591,-6.12524 8.76333,-7.88961 5.08824,-3.49673 9.70143,-5.28588 20.47974,-7.94272 4.07459,-1.00438 9.66666,-2.47632 12.42684,-3.27098 2.76018,-0.79466 5.09805,-1.39567 5.19528,-1.33558 0.0972,0.0601 -0.21079,1.33103 -0.68449,2.82431 -0.47369,1.49329 -1.59677,6.14966 -2.49574,10.3475 -2.37026,11.06834 -3.72114,15.20004 -6.66441,20.38333 -4.57794,8.06204 -12.12574,14.83414 -20.77445,18.63941 -4.83326,2.12655 -9.82243,3.41351 -17.03323,4.39373 -4.2816,0.58203 -4.93395,0.82814 -6.55494,2.473 -3.28514,3.33352 -6.85872,13.66268 -7.70862,22.28122 -0.15068,1.52797 -0.39907,5.10402 -0.55199,7.94679 -0.45359,8.43282 -1.44858,15.8821 -2.89765,21.6941 -0.27107,1.08725 -0.46051,2.01054 -0.42096,2.05176 0.0395,0.0412 0.9685,-1.26847 2.06436,-2.91042 1.09586,-1.64195 2.78553,-3.91207 3.75482,-5.04471 2.67952,-3.13108 2.82119,-3.49414 4.66701,-11.95974 2.80799,-12.87852 10.34136,-23.90606 21.188,-31.01553 5.39252,-3.53455 11.32079,-5.79056 20.59122,-7.83601 2.98317,-0.65822 7.09083,-1.56418 9.12812,-2.01325 2.03729,-0.44907 5.4901,-1.33141 7.67292,-1.96075 2.65176,-0.76454 3.99401,-1.04323 4.04488,-0.83983 0.0419,0.16744 -0.34912,1.41878 -0.86887,2.78076 -0.51975,1.36199 -2.08182,6.1134 -3.47127,10.55869 -1.38945,4.4453 -2.99883,9.2763 -3.57641,10.73556 -2.74432,6.93358 -6.83305,12.88099 -12.32898,17.93355 -5.97299,5.49115 -13.6792,9.33803 -22.16393,11.06407 -2.49118,0.50678 -3.93946,0.60506 -10.05417,0.68226 l -7.14375,0.0902 -1.88071,0.92341 c -2.46729,1.21141 -4.89034,3.75678 -7.85333,8.2498 -2.63325,3.99299 -3.25287,5.18781 -5.84735,11.27549 -3.77035,8.84672 -4.81465,10.48641 -7.1134,11.16906 -1.479778,0.43945 -3.694614,0.50024 -4.623424,0.12691 z m 26.343684,-35.37233 c 0.53599,-0.39609 2.82,-2.2148 5.07557,-4.04158 4.44676,-3.60141 7.95386,-6.36615 10.45104,-8.23883 2.41374,-1.8101 4.92501,-2.66747 10.71563,-3.6584 6.79734,-1.1632 11.76871,-2.17653 12.42233,-2.53208 0.63157,-0.34356 0.55998,-0.36761 -1.12405,-0.37753 -2.44334,-0.0144 -8.34244,0.68231 -12.33992,1.45737 -1.80983,0.3509 -3.32443,0.60417 -3.36578,0.56282 -0.0413,-0.0413 1.00807,-0.90214 2.33204,-1.91287 1.32397,-1.01074 2.84571,-2.19489 3.38163,-2.63145 0.53593,-0.43656 1.43518,-1.15094 1.99834,-1.5875 2.48798,-1.92868 10.37527,-8.43962 13.75964,-11.35854 4.79643,-4.13678 4.74766,-4.09172 4.59412,-4.24526 -0.23145,-0.23145 -6.55088,4.43664 -17.76743,13.1246 -0.75756,0.58678 -2.80613,2.14543 -4.55238,3.46366 -1.74625,1.31823 -3.74531,2.87147 -4.44236,3.45165 -0.69705,0.58017 -1.315,1.00723 -1.37321,0.94901 -0.0582,-0.0582 0.2255,-0.63883 0.63048,-1.29027 1.21733,-1.95817 4.42308,-8.17691 5.43795,-10.5489 0.93582,-2.18726 1.0884,-3.04732 0.32592,-1.83714 -0.44434,0.70524 -4.66584,7.94997 -5.67922,9.7464 -0.3694,0.65484 -1.53437,2.44078 -2.58882,3.96875 -1.51295,2.19237 -2.32699,3.08365 -3.86083,4.22717 -1.06902,0.79698 -2.83663,2.22573 -3.92804,3.175 -1.0914,0.94927 -2.69875,2.31966 -3.57187,3.04531 -2.06519,1.71635 -7.2559,6.7496 -7.57555,7.34575 -0.34499,0.64337 -0.0884,0.58021 1.04477,-0.25714 z m -27.085054,-8.56687 c -3.40999,-3.44428 -8.61756,-7.187 -13.54857,-9.73747 -1.29099,-0.66774 -2.49965,-1.9573 -7.9594,-8.49217 -5.59404,-6.6956 -6.84394,-8.10272 -7.03112,-7.91555 -0.13209,0.13209 1.60299,2.49349 7.34356,9.9944 1.04209,1.36165 2.13245,2.7904 2.42303,3.175 l 0.52831,0.69928 -0.6606,-0.42512 c -4.27689,-2.75226 -28.83873,-15.16374 -28.83873,-14.57266 0,0.212 0.36171,0.4486 3.30729,2.16343 7.34794,4.27774 7.16736,4.17637 14.02291,7.87189 1.89177,1.01977 4.0349,2.20216 4.7625,2.62753 0.72761,0.42537 2.24407,1.2438 3.36992,1.81875 l 2.047,1.04534 -4.56054,0.16678 c -4.35476,0.15925 -9.21093,0.80861 -12.63033,1.68893 -1.43142,0.36851 -1.40115,0.37264 1.85208,0.25282 18.08108,-0.66594 17.75313,-0.71004 24.77411,3.33135 3.17784,1.82921 5.03612,3.08565 9.74784,6.59081 1.74285,1.29655 3.22494,2.30124 3.29353,2.23265 0.0686,-0.0686 -0.94067,-1.20078 -2.24279,-2.51599 z m 27.141114,-37.87495 c 0.68633,-0.76398 1.70158,-1.98438 2.2561,-2.71198 1.45602,-1.91046 8.41653,-9.44942 10.87057,-11.77396 3.32627,-3.15074 5.68072,-4.15583 15.81835,-6.75268 3.19086,-0.81737 6.16742,-1.64675 6.61459,-1.84306 l 0.81302,-0.35692 -1.28896,-0.0216 c -2.84557,-0.0476 -9.50765,1.23049 -14.30221,2.74392 -1.15358,0.36413 -1.98702,0.5692 -1.85208,0.45571 0.13493,-0.11348 1.61456,-1.45247 3.28805,-2.97551 1.67349,-1.52304 4.11427,-3.714 5.42395,-4.8688 5.21003,-4.59387 13.72769,-12.82595 13.50319,-13.05045 -0.14401,-0.14401 -3.70819,2.62618 -7.34712,5.7104 -5.24061,4.44175 -12.25236,10.53032 -14.98083,13.00842 -2.07492,1.88453 -2.64713,2.29556 -2.32292,1.66861 0.78517,-1.51836 4.32665,-10.75151 4.89138,-12.75254 0.88881,-3.14938 0.12933,-1.83367 -3.2747,5.67304 -4.31546,9.5166 -5.1119,10.93496 -7.52125,13.39433 -4.03445,4.11823 -7.24549,7.93367 -9.49956,11.28766 -1.6524,2.45872 -2.81034,4.55446 -2.51642,4.55446 0.0984,0 0.74051,-0.62508 1.42685,-1.38906 z m -28.344234,-7.00605 c -1.55066,-1.6844 -2.44606,-2.54532 -4.62542,-4.44728 -2.03865,-1.77916 -2.37182,-2.05409 -7.71507,-6.36658 l -3.76778,-3.04095 -2.47417,-4.15473 c -1.36079,-2.28509 -3.40369,-5.8216 -4.53977,-7.85889 -2.31953,-4.15952 -2.80811,-4.95557 -2.95274,-4.81093 -0.29946,0.29945 3.32312,8.06787 5.92559,12.7071 0.6403,1.14143 1.12503,2.11449 1.07717,2.16235 -0.0479,0.0479 -0.86021,-0.5485 -1.80522,-1.32525 -3.20795,-2.63676 -15.69977,-11.02966 -21.93941,-14.74048 -2.8193,-1.67668 -3.459,-1.98624 -3.459,-1.67385 0,0.30468 9.21389,7.03649 15.21354,11.11525 1.89177,1.28609 4.0349,2.77486 4.7625,3.3084 4.08315,2.99406 5.42396,4.01643 5.42396,4.13579 0,0.0732 -0.0966,0.0734 -0.2146,4.3e-4 -0.11804,-0.0729 -1.63608,-0.381 -3.37344,-0.68457 -4.56467,-0.79758 -14.50795,-1.08224 -13.82141,-0.3957 0.10673,0.10673 2.43319,0.45244 10.63871,1.58092 4.20829,0.57876 9.04676,1.65768 10.30816,2.2986 1.24216,0.63115 3.47549,2.2764 8.95116,6.59413 4.94841,3.90198 9.29832,7.10931 9.44416,6.96347 0.0578,-0.0578 -0.41784,-0.67303 -1.05692,-1.36723 z M 118.5486,135.44061 c 2.10382,-2.56817 7.3174,-8.40377 8.11179,-9.07961 0.21829,-0.1857 1.17079,-0.73551 2.11667,-1.2218 2.08719,-1.07303 4.76342,-1.95637 15.41582,-5.08827 0.65453,-0.19243 0.33524,-0.57532 -0.3944,-0.47295 -0.3309,0.0464 -1.61366,0.22302 -2.85059,0.39245 -2.66673,0.36526 -5.05059,0.87751 -7.40833,1.59191 -0.94588,0.28661 -1.95792,0.58964 -2.24896,0.67341 -0.29104,0.0838 3.78168,-4.17609 9.05049,-9.46635 9.39923,-9.43751 10.94429,-11.07388 10.45597,-11.07388 -0.61012,0 -9.96588,8.44429 -17.07237,15.40911 -2.44479,2.39606 -4.36764,4.1657 -4.273,3.93253 1.92249,-4.73626 4.62445,-12.61728 4.60644,-13.43599 -0.0159,-0.7249 -0.49951,0.26864 -3.54718,7.288 -3.7018,8.52592 -4.11899,9.2936 -6.34296,11.67169 -2.86052,3.05876 -5.45156,6.24043 -6.84533,8.40572 -1.25781,1.95409 -2.30393,3.86253 -2.30393,4.20307 0,0.35493 1.36951,-1.09186 3.52987,-3.72904 z m -26.688564,-5.23092 c -1.56305,-2.35658 -3.33822,-4.63437 -5.94546,-7.62886 -1.09141,-1.25351 -2.25919,-2.60485 -2.59508,-3.00297 -0.58934,-0.69853 -1.65161,-3.28938 -4.56566,-11.13547 -1.46651,-3.9486 -2.06199,-5.28526 -2.26438,-5.08286 -0.23778,0.23778 2.71199,10.61718 3.38075,11.89589 0.13318,0.25466 0.2082,0.46176 0.1667,0.46023 -0.0415,-0.002 -1.62379,-1.51958 -3.51621,-3.37344 -6.22278,-6.096 -17.60646,-15.749122 -18.04977,-15.305818 -0.21777,0.217774 4.00347,4.381968 9.57378,9.444398 4.81874,4.37939 11.64357,11.08973 11.27893,11.08973 -0.12231,0 -0.89011,-0.2953 -1.70621,-0.65622 -1.78034,-0.78735 -5.47314,-1.84554 -7.84243,-2.24729 -2.25322,-0.38206 -7.14375,-0.73098 -7.14375,-0.50968 0,0.0952 2.28109,0.73354 5.06909,1.41854 6.07805,1.49333 8.82985,2.42793 11.98191,4.06945 2.3895,1.2444 3.06122,1.79485 5.70339,4.67374 5.22295,5.69092 7.49853,8.06589 7.61588,7.94854 0.0739,-0.0739 -0.43977,-0.99995 -1.14148,-2.05791 z m 12.446444,-23.3548 c 0.24789,-1.60072 0.51309,-5.14707 0.58932,-7.880769 l 0.1386,-4.970356 1.6632,-2.914791 c 1.69717,-2.974342 2.93459,-4.699245 6.71343,-9.358246 1.17527,-1.449021 2.13686,-2.733132 2.13686,-2.853579 0,-1.179695 -8.01968,7.525073 -9.95461,10.804997 -0.49803,0.844214 -0.16672,-3.499893 1.19247,-15.635583 1.12204,-10.018203 1.27649,-11.773958 1.03577,-11.773958 -0.11612,0 -0.21159,0.02977 -0.21215,0.06615 -5.6e-4,0.03638 -0.2918,1.554427 -0.64719,3.373437 -0.9797,5.014437 -2.18602,14.211359 -2.79709,21.324902 -0.30124,3.50677 -0.64842,6.721457 -0.77152,7.14375 l -0.22382,0.767805 -0.33777,-0.926041 c -0.67737,-1.857092 -2.55158,-5.206882 -3.996948,-7.14375 -1.398016,-1.873423 -2.866286,-3.463546 -2.866286,-3.104173 0,0.08969 0.67549,1.271301 1.5011,2.625808 4.881984,8.009523 6.142004,12.427746 6.166554,21.622977 0.003,1.07928 0.0534,1.91273 0.1123,1.85209 0.0589,-0.0606 0.30988,-1.41994 0.55778,-3.02067 z"
       id="path1" /></g></svg>
