<?xml version="1.0" encoding="UTF-8" standalone="no"?>
<!-- Created with Inkscape (http://www.inkscape.org/) -->

<svg
   width="210mm"
   height="297mm"
   viewBox="0 0 210 297"
   version="1.1"
   id="svg1"
   xml:space="preserve"
   inkscape:version="1.3.2 (091e20e, 2023-11-25, custom)"
   sodipodi:docname="Venancio 2.svg"
   xmlns:inkscape="http://www.inkscape.org/namespaces/inkscape"
   xmlns:sodipodi="http://sodipodi.sourceforge.net/DTD/sodipodi-0.dtd"
   xmlns:xlink="http://www.w3.org/1999/xlink"
   xmlns="http://www.w3.org/2000/svg"
   xmlns:svg="http://www.w3.org/2000/svg"><sodipodi:namedview
     id="namedview1"
     pagecolor="#ffffff"
     bordercolor="#000000"
     borderopacity="0.25"
     inkscape:showpageshadow="2"
     inkscape:pageopacity="0.0"
     inkscape:pagecheckerboard="0"
     inkscape:deskcolor="#d1d1d1"
     inkscape:document-units="mm"
     inkscape:zoom="0.34583057"
     inkscape:cx="255.90566"
     inkscape:cy="727.23473"
     inkscape:window-width="1366"
     inkscape:window-height="745"
     inkscape:window-x="-8"
     inkscape:window-y="-8"
     inkscape:window-maximized="1"
     inkscape:current-layer="layer1" /><defs
     id="defs1" /><g
     inkscape:label="Capa 1"
     inkscape:groupmode="layer"
     id="layer1"><path
       style="fill:#a25432;fill-opacity:1;stroke-width:0.511461"
       d="m 66.24314,187.90148 c -0.0488,-0.0488 -0.61181,-0.0986 -1.25116,-0.1108 -1.3181,-0.0251 -1.40643,-0.087 -1.40965,-0.98892 -0.003,-0.77363 -0.24917,-1.32058 -1.08794,-2.41493 -0.67536,-0.88114 -0.69809,-0.93869 -0.61578,-1.55915 0.047,-0.35433 0.17106,-0.88686 0.27568,-1.18339 0.87084,-2.46821 2.91317,-16.75996 2.72374,-19.06005 l -0.0728,-0.8844 2.60421,-2.65392 c 2.44185,-2.48846 3.81332,-4.16827 4.32123,-5.29274 1.13593,-2.51484 1.28283,-3.36078 1.45386,-8.37198 0.099,-2.9004 0.20285,-4.24919 0.41302,-5.36342 0.47456,-2.51597 0.47365,-2.50361 0.1837,-2.50264 -0.28212,0.001 -0.47495,0.29525 -1.36925,2.08984 -0.91497,1.83608 -2.07697,3.45837 -3.58631,5.00692 l -0.52086,0.5344 0.0889,-0.60206 c 0.87932,-5.95451 1.65313,-7.6959 4.3886,-9.87617 1.48395,-1.18276 3.65151,-2.11625 6.4279,-2.76828 1.94529,-0.45684 5.02171,-0.76852 11.299573,-1.14477 12.004897,-0.71949 12.184807,-0.74384 15.562267,-2.1062 0.2605,-0.10507 1.0217,-0.39833 1.69155,-0.65168 2.59567,-0.98172 4.28537,-1.97832 4.80859,-2.83612 0.93363,-1.5307 1.03102,-3.35836 0.41614,-7.81003 -0.73938,-5.35301 -0.84028,-7.61301 -0.40476,-9.06662 0.21091,-0.70399 0.0858,-0.80707 -0.98281,-0.80997 -1.92328,-0.005 -4.25147,-1.36248 -5.57463,-3.24985 -0.62144,-0.88644 -1.5713,-2.48761 -1.5113,-2.54761 0.0996,-0.0996 3.66382,0.25398 4.46786,0.44327 1.21599,0.28627 1.91114,0.62767 3.14587,1.545 0.61445,0.45649 1.19307,0.82999 1.28582,0.82999 0.21449,0 0.83348,-1.15256 0.71872,-1.33825 -0.1857,-0.30046 -2.41902,-1.67653 -4.54262,-2.79897 -1.97116,-1.041854 -5.21403,-3.067125 -5.91166,-3.692006 -0.13666,-0.122407 -0.82634,-0.688324 -1.53261,-1.257594 -2.953997,-2.380974 -4.823257,-4.901464 -5.504867,-7.422722 -0.27869,-1.030885 -0.30652,-4.004404 -0.0484,-5.171284 0.1833,-0.828624 0.96619,-2.980765 1.05281,-2.894143 0.0322,0.03224 0.0865,0.68791 0.1206,1.457036 0.0799,1.803992 0.52493,4.526373 0.93404,5.714475 0.17669,0.513128 0.61356,1.417315 0.97082,2.009305 0.648407,1.074439 1.704557,2.186125 1.988227,2.09278 0.0824,-0.02713 0.16562,-0.379466 0.18484,-0.782971 0.0879,-1.844357 0.78033,-5.351819 1.42724,-7.229204 0.37051,-1.075271 1.43066,-3.217672 1.43972,-2.909469 0.003,0.111642 -0.0811,0.781497 -0.18744,1.488566 -0.63368,4.212063 -0.2309,9.733278 0.87526,11.997658 0.43854,0.897724 1.40994,1.893323 2.7357,2.803848 1.12213,0.770675 1.24531,0.670437 1.12868,-0.918437 -0.0563,-0.766655 -0.03,-1.74161 0.0664,-2.466877 0.20298,-1.526841 0.37479,-1.996158 0.38947,-1.063897 0.0348,2.209999 1.39415,5.117954 3.20311,6.852184 1.32283,1.268192 3.6089,3.108012 3.78017,3.042292 0.0884,-0.0339 0.44337,-0.10408 0.78873,-0.15587 0.34535,-0.0518 0.66167,-0.14877 0.70293,-0.21553 0.0413,-0.0667 0.0957,-1.23197 0.12091,-2.58937 0.0263,-1.415401 0.14129,-3.055689 0.26953,-3.84592 0.18395,-1.133443 0.20027,-1.673646 0.092,-3.044793 -0.0724,-0.916785 -0.1139,-1.684728 -0.0923,-1.706538 0.0216,-0.02181 0.38561,0.800284 0.80886,1.826876 0.93018,2.25614 1.5454,3.339759 1.92812,3.396085 0.34386,0.05061 1.58156,-1.269866 1.94105,-2.07085 0.78266,-1.743882 0.63766,-5.076932 -0.34868,-8.015214 -0.18815,-0.560474 -0.32165,-1.039487 -0.29666,-1.064474 0.0645,-0.06448 1.14866,1.443462 1.48426,2.06438 0.50556,0.935378 1.33235,3.078483 1.41399,3.665162 0.0439,0.31584 0.16362,0.681215 0.26594,0.811945 0.17284,0.220851 0.21575,0.204135 0.60569,-0.235944 0.90663,-1.023234 1.295,-2.692705 1.13882,-4.895518 -0.0876,-1.235525 -0.46007,-3.382178 -0.68267,-3.934381 -0.19929,-0.494382 0.24996,-0.208054 1.22772,0.782479 1.09848,1.112827 1.502,1.791134 1.93818,3.258003 0.42318,1.423106 0.37699,2.32368 -0.18974,3.699674 -0.25895,0.628708 -0.66888,1.47871 -0.91096,1.888895 -0.41164,0.697476 -2.51014,2.902457 -5.29495,5.563619 -2.77286,2.649744 -3.78455,4.383354 -2.98708,5.118604 0.14505,0.13373 0.81179,0.446 1.48164,0.69392 2.02732,0.75035 11.03649,4.9794 11.86612,5.57015 0.36004,0.25637 0.40273,0.35423 0.34435,0.78947 -0.0367,0.27324 -0.24,0.85086 -0.45188,1.28358 -0.57391,1.17208 -0.69842,1.21056 -6.14264,1.89825 -3.37758,0.42664 -3.86761,0.49564 -4.49952,0.63366 -0.57075,0.12466 -0.64255,0.18059 -0.64063,0.49903 10e-4,0.21135 0.36461,0.91026 0.88468,1.70174 1.11335,1.6944 2.4767,4.48822 3.02494,6.19886 0.71965,2.24544 1.88623,7.28546 2.15396,9.3059 0.31745,2.3956 -0.18485,6.38264 -1.19341,9.4727 -0.47544,1.45665 -1.9692,4.51115 -2.60996,5.33696 -1.5272,1.96821 -4.35835,4.59025 -5.87379,5.43995 l -0.51597,0.2893 0.0456,-1.54405 c 0.0517,-1.75363 -0.17119,-3.43258 -0.45576,-3.43258 -0.35351,0 -0.20171,-0.64922 -2.43633,10.41996 -1.58076,7.83026 -2.22044,11.81524 -3.04117,18.94538 -0.27031,2.34835 -0.3519,4.83469 -0.18116,5.5203 0.33737,1.35468 1.39264,3.72739 2.47177,5.55759 0.22934,0.38897 0.41666,0.75021 0.41626,0.80275 -10e-4,0.16024 -3.95148,0.17327 -4.14378,0.0137 -0.0949,-0.0788 -0.2116,-0.42752 -0.25926,-0.77497 -0.16535,-1.20536 -0.36437,-1.72019 -1.10375,-2.8552 l -0.74322,-1.14089 0.14966,-1.49793 c 0.47102,-4.71469 0.59003,-15.45046 0.22138,-19.96968 -0.28582,-3.5037 -0.68768,-7.2294 -0.94147,-8.72841 -0.0378,-0.22328 -0.13059,-0.80179 -0.20617,-1.28558 -0.0756,-0.48378 -0.25993,-1.6408 -0.40965,-2.57115 -0.14971,-0.93036 -0.2884,-1.8438 -0.30818,-2.02987 -0.0251,-0.2361 -0.11774,-0.33831 -0.30662,-0.33831 -0.47645,0 -0.63301,1.02847 -0.55622,3.65375 0.037,1.26529 0.10654,2.45885 0.1545,2.65237 l 0.0872,0.35186 -2.48157,-0.44054 c -7.887167,-1.40015 -13.110087,-2.22537 -14.084617,-2.22537 -0.20522,0 -0.37313,-0.0523 -0.37313,-0.11627 0,-0.064 0.20761,-0.56634 0.46136,-1.11642 0.9293,-2.01458 1.38185,-3.92444 1.70511,-7.19594 0.14984,-1.5164 0.12002,-1.75874 -0.20122,-1.63546 -0.21132,0.0811 -0.53668,0.92568 -1.46057,3.79152 -0.63636,1.97392 -1.69044,4.30685 -2.46806,5.46238 -0.64791,0.9628 -3.164973,3.71167 -4.369783,4.77222 -1.16026,1.02134 -3.79657,2.93086 -7.26691,5.26354 -3.23671,2.17563 -4.80294,3.35785 -6.10649,4.60931 -1.75917,1.68888 -1.7907,1.7831 -3.36335,10.04983 -0.0991,0.52099 -0.426,2.22607 -0.72641,3.78907 -0.82307,4.28228 -0.81032,3.88244 -0.17442,5.46742 0.53078,1.32298 1.33737,2.8064 1.93293,3.5549 0.46175,0.58032 0.2669,0.78868 -0.7375,0.78868 -0.47371,0 -0.90122,-0.0399 -0.95001,-0.0887 z m 57.86298,-80.40498 c 0.35154,-0.35155 0.23303,-1.06926 -0.25181,-1.52492 -0.3173,-0.29821 -0.45901,-0.32613 -1.65565,-0.32613 -1.64257,0 -2.05292,0.10385 -2.05292,0.51952 0,0.35136 0.84083,1.40222 1.27264,1.59053 0.15597,0.068 0.76387,0.0982 1.35089,0.0671 0.83532,-0.0443 1.1259,-0.11516 1.33685,-0.3261 z m -31.805567,80.13523 c -0.0704,-0.13778 -0.20052,-0.54794 -0.28926,-0.91147 -0.25444,-1.04235 -0.5911,-1.56841 -1.67926,-2.62404 -0.87022,-0.84421 -1.03867,-1.08386 -1.18212,-1.68185 -0.39364,-1.64087 -1.96308,-4.76208 -6.370853,-12.66996 -0.51153,-0.91772 -0.93005,-1.69875 -0.93005,-1.73561 0,-0.0369 -0.25731,-0.50392 -0.5718,-1.0379 -0.78461,-1.33225 -1.16516,-1.99842 -1.34849,-2.36066 -0.13702,-0.27071 -0.0745,-0.42336 0.52661,-1.28558 0.77306,-1.10887 1.71381,-2.93674 2.27213,-4.41473 0.42507,-1.12523 0.57434,-1.3062 2.34777,-2.84644 1.18699,-1.03092 2.404153,-2.2773 3.337003,-3.41714 l 0.40598,-0.49606 1.32707,0.32095 c 0.72989,0.17652 1.88691,0.42517 2.57116,0.55254 0.68424,0.12738 1.29093,0.27171 1.34819,0.32074 0.29371,0.25144 -1.19692,3.0591 -2.4696,4.65159 -0.97044,1.21431 -2.70313,2.97761 -4.19773,4.27189 -0.632643,0.54784 -1.353823,1.2463 -1.602613,1.55211 -0.43442,0.53397 -0.45015,0.59359 -0.39658,1.50329 0.065,1.10374 0.71552,2.86697 2.757463,7.47404 2.68136,6.04973 4.17112,8.6942 7.05189,12.51782 1.02125,1.3555 1.59901,2.24563 1.51015,2.32665 -0.0278,0.0254 -1.00428,0.0898 -2.16988,0.14323 -1.98089,0.0907 -2.12762,0.0807 -2.24718,-0.15341 z m 33.647777,-0.011 -0.6253,-0.05 -0.16447,-1.04206 c -0.0905,-0.57313 -0.2481,-1.16386 -0.3503,-1.31271 -0.10221,-0.14886 -0.43101,-0.60558 -0.73068,-1.01493 -0.87913,-1.20091 -0.95664,-1.40355 -1.02197,-2.67196 -0.22424,-4.35335 -0.9445,-8.80167 -3.24847,-20.06249 -0.52695,-2.57551 -1.00342,-4.66129 -1.41203,-6.18123 -0.39817,-1.48111 -0.37364,-1.52007 1.82539,-2.89951 1.03809,-0.65119 2.38983,-1.6146 3.00386,-2.14091 0.95971,-0.8226 1.11594,-0.91424 1.11295,-0.65275 -0.037,3.23613 0.15645,15.92539 0.26247,17.2197 0.0793,0.96756 0.17435,2.15763 0.2113,2.6446 0.34073,4.48936 1.18292,10.39675 1.71621,12.03807 0.24169,0.74383 1.91554,3.92957 2.60351,4.9551 0.34262,0.51073 0.62295,1.00537 0.62295,1.09921 0,0.12895 -0.38814,0.16464 -1.59006,0.1462 -0.87453,-0.0134 -1.87145,-0.0469 -2.21536,-0.0744 z"
       id="path1" /><path
       id="path3"
       style="fill:none;stroke:#31313a;stroke-width:0;stroke-opacity:0.223529"
       d="M 144.9836,179.06558 A 69.245903,67.622948 0 0 1 75.737705,246.68853 69.245903,67.622948 0 0 1 6.4918028,179.06558 69.245903,67.622948 0 0 1 75.737705,111.44263 69.245903,67.622948 0 0 1 144.9836,179.06558 Z" /><text
       xml:space="preserve"
       style="font-style:normal;font-variant:normal;font-weight:bold;font-stretch:normal;font-size:17.6226px;line-height:1;font-family:Helvetica;-inkscape-font-specification:'Helvetica Bold';letter-spacing:1.46855px;fill:#a25432;fill-opacity:1;stroke:#31313a;stroke-width:0;stroke-opacity:0.223529"
       id="text3"
       transform="matrix(0.89258493,-0.06881361,0.0696768,0.90378148,-17.021891,18.081833)"><textPath
         xlink:href="#path6"
         id="textPath6"
         style="font-style:normal;font-variant:normal;font-weight:bold;font-stretch:normal;font-size:17.6226px;line-height:1;font-family:Helvetica;-inkscape-font-specification:'Helvetica Bold';letter-spacing:1.46855px">Ex Natura Scientia - José Daniel Vargas Murillo</textPath></text><path
       id="path6"
       style="fill:none;stroke:#31313a;stroke-width:0;stroke-opacity:0.223529"
       d="M 47.661886,176.66049 A 83.040985,83.040985 0 0 1 90.044413,67.13729 83.040985,83.040985 0 0 1 199.56761,109.51983 83.040985,83.040985 0 0 1 157.18508,219.04302 83.040985,83.040985 0 0 1 47.661886,176.66049 Z" /></g><g
     inkscape:groupmode="layer"
     id="layer2"
     inkscape:label="Capa 2" /></svg>
